<svg id="logo_image" xmlns:rdf="http://www.w3.org/1999/02/22-rdf-syntax-ns#" xmlns="http://www.w3.org/2000/svg" enable-background="new 0 0 479.6 84.2" xml:space="preserve" viewBox="0 0 479.6 84.2" height="100%" width="100%" version="1.1" y="0px" x="0px" xmlns:cc="http://creativecommons.org/ns#" xmlns:dc="http://purl.org/dc/elements/1.1/"><metadata id="metadata3069"><rdf:rdf><cc:work rdf:about=""><dc:format>image/svg+xml</dc:format><dc:type rdf:resource="http://purl.org/dc/dcmitype/StillImage"></dc:type><dc:title></dc:title></cc:work></rdf:rdf></metadata>
                <g id="g3029" fill="#171212">
                <g id="g3031">
                <path id="path3033" d="M133.3,28.5h-4.6v-4.6h4.6v4.6zm0,31.4h-4.6v-25h4.6v25z"></path>
                <path id="path3035" d="M166,55.3c-1,1.3-2.6,2.5-4.7,3.5s-4.8,1.5-8,1.5c-4.1,0-7.5-1.3-10.1-3.8s-3.9-5.9-3.9-10v-7c0-4.1,1.3-7.4,3.8-10s5.7-3.9,9.7-3.9c4.1,0,7.2,1,9.4,3s3.3,4.6,3.3,7.9v0.1h-6.4c-0.1-1.8-0.7-3.2-1.7-4.2s-2.5-1.6-4.5-1.6c-2.1,0-3.7,0.8-5,2.4s-1.9,3.6-1.9,6.2v7.1c0,2.6,0.7,4.6,2,6.2s3.1,2.4,5.3,2.4c1.6,0,2.8-0.2,3.8-0.5s1.7-0.7,2.2-1.2v-6.2h-6v-4.7h12.7v12.8z"></path>
                <path id="path3037" d="M189.8,52.7h-11.8l-2.3,7.3h-6.8l11.6-33.7h6.9l11.5,33.7h-6.8l-2.3-7.3zm-10.1-5.3h8.5l-4.2-13.3h-0.1l-4.2,13.3z"></path>
                <path id="path3039" d="M210.9,26.2l8.6,24.8h0.1l8.6-24.8h8.8v33.7h-6.8v-10l0.8-14.9h-0.1l-9,24.9h-4.5l-9-24.8h-0.1l0.6,14.8v10h-6.8v-33.7h8.8z"></path>
                <path id="path3041" d="M250.6,59.9h-6.8v-33.7h6.8v33.7z"></path>
                <path id="path3043" d="M284.5,59.9h-6.7l-13.6-23h-0.1v23h-6.8v-33.7h6.8l13.6,23h0.1v-23h6.7v33.7z"></path>
                <path id="path3045" d="M316.7,55.3c-1,1.3-2.6,2.5-4.7,3.5s-4.8,1.5-8,1.5c-4.1,0-7.5-1.3-10.1-3.8s-3.9-5.9-3.9-10v-7c0-4.1,1.3-7.4,3.8-10s5.7-3.9,9.7-3.9c4.1,0,7.2,1,9.4,3s3.3,4.6,3.3,7.9v0.1h-6.4c-0.1-1.8-0.7-3.2-1.7-4.2s-2.5-1.6-4.5-1.6c-2.1,0-3.7,0.8-5,2.4s-1.9,3.6-1.9,6.2v7.1c0,2.6,0.7,4.6,2,6.2s3.1,2.4,5.3,2.4c1.6,0,2.8-0.2,3.8-0.5s1.7-0.7,2.2-1.2v-6.2h-6v-4.7h12.7v12.8z"></path>
                <path id="path3047" d="M359.1,49.1v0.1c0.1,3.2-1,5.8-3.3,7.9s-5.3,3.2-9,3.2c-3.8,0-6.9-1.3-9.3-4s-3.6-6.1-3.6-10.3v-6c0-4.1,1.2-7.6,3.6-10.3s5.5-4.1,9.3-4.1c3.8,0,6.8,1,9.1,3s3.3,4.7,3.3,8.1v0.1h-4.4c0-2.4-0.7-4.2-2.1-5.6s-3.3-2.1-5.9-2.1c-2.5,0-4.6,1-6.1,3.1s-2.3,4.6-2.3,7.6v6c0,3.1,0.8,5.6,2.3,7.7,1.5,2,3.5,3.1,6.1,3.1,2.5,0,4.5-0.7,5.9-2,1.4-1.4,2.1-3.2,2.1-5.7h4.3z"></path>
                <path id="path3049" d="M369.9,56.3h15.9v3.6h-20.5v-33.7h4.6v30.1z"></path>
                <path id="path3051" d="M415.8,46.1c0,4.1-1.3,7.5-3.8,10.2-2.6,2.7-5.9,4.1-9.9,4.1-3.9,0-7.1-1.4-9.6-4.1s-3.7-6.1-3.7-10.2v-6c0-4.1,1.2-7.5,3.7-10.2s5.7-4.1,9.6-4.1c4.1,0,7.4,1.4,9.9,4.1,2.6,2.7,3.8,6.1,3.8,10.3v5.9zm-4.6-6c0-3.1-0.8-5.6-2.5-7.6s-3.9-3-6.7-3c-2.7,0-4.8,1-6.3,3-1.6,2-2.4,4.5-2.4,7.6v6c0,3.1,0.8,5.7,2.4,7.6s3.7,3,6.3,3c2.8,0,5.1-1,6.7-2.9,1.7-2,2.5-4.5,2.5-7.6v-6.1z"></path>
                <path id="path3053" d="M447.2,26.2v22.8c0,3.7-1.2,6.5-3.6,8.4s-5.5,2.9-9.3,2.9c-3.7,0-6.7-1-9-2.9-2.3-2-3.5-4.8-3.5-8.4v-22.8h4.6v22.8c0,2.5,0.7,4.5,2.2,5.8,1.4,1.3,3.4,2,5.7,2,2.5,0,4.5-0.7,6-2s2.3-3.2,2.3-5.8v-22.8h4.6z"></path>
                <path id="path3055" d="M454.7,59.9v-33.7h10.3c4.4,0,7.9,1.4,10.6,4.1s4,6.2,4,10.5v4.6c0,4.3-1.3,7.8-4,10.5s-6.2,4-10.6,4h-10.3zm4.5-30.1v26.5h5.8c3.1,0,5.6-1,7.4-3.1s2.7-4.7,2.7-7.9v-4.6c0-3.2-0.9-5.8-2.7-7.8s-4.3-3.1-7.4-3.1h-5.8z"></path>
                        </g>
                <g id="g3057">
                <path id="path3059" d="M54.9,37s-8.2-12.4-24.2-12.8c0,0-18.7-1.3-28,17.8,0,0-8.3,15.4,4.5,31.6,0,0,10.4,13.5,28.6,10.2,0,0,8.8-1.9,14.6-7.3l-16.2-21.6-5.5,4.1,11.1,14.7,0.3,0.4s-14.1,7.9-26.5-4.2-3.9-27.1-3.9-27.1,6.4-11.7,19.7-11.8,21.5,12,21.5,12l14.1,18.5,5.5-4.1"></path>
                <path id="path3061" d="M39.4,50.6l5.5-4.2,14.7,19.2s8.9,13.3,23.7,11.1c0,0,12-1.1,17.4-12.6,0,0,8.5-17.8-8.2-29.2,0,0-11-7.9-24.3-0.3,0,0-3.2,2.2-4.5,3.6l-4.9-5.9s10-10.5,25.7-7.8c0,0,12.3,1.7,19.8,12.7,0,0,5.2,7.3,5.2,16.5,0,0,0.3,10.7-6.3,18.9,0,0-6.4,8.8-17.3,11,0,0-10.9,2.8-21.3-3.2,0,0-5.6-3.4-9.2-8.1l-16-21.7z"></path>
                <path id="path3063" d="M24.5,20.8h7.4s7-15.7,25-14.9c0,0,13.8,0.7,21.1,14.9h7.4s-7.7-20.9-29.8-20.8c-0.1,0-21.6-1.7-31.1,20.8z"></path>
                        </g>
                    </g>
                </svg>